<?xml version="1.0" standalone="no"?>
<!DOCTYPE svg PUBLIC "-//W3C//DTD SVG 20010904//EN"
 "http://www.w3.org/TR/2001/REC-SVG-20010904/DTD/svg10.dtd">
<svg version="1.0" xmlns="http://www.w3.org/2000/svg"
 width="300.000000pt" height="300.000000pt" viewBox="0 0 300.000000 300.000000"
 preserveAspectRatio="xMidYMid meet">
<metadata>
Created by potrace 1.11, written by Peter Selinger 2001-2013
</metadata>
<g transform="translate(0.000000,300.000000) scale(0.100000,-0.100000)"
fill="#000000" stroke="none">
<path d="M0 1500 l0 -1500 1500 0 1500 0 0 1500 0 1500 -1500 0 -1500 0 0
-1500z m2596 570 c95 -21 94 -21 94 -105 0 -88 0 -88 -98 -49 -143 57 -268 54
-385 -8 -146 -78 -227 -236 -227 -443 0 -214 80 -359 238 -433 51 -24 68 -27
167 -27 99 1 117 4 175 29 36 16 80 31 98 33 l32 5 0 -66 c0 -61 -2 -66 -27
-80 -93 -47 -304 -70 -441 -46 -150 25 -291 130 -361 268 -100 199 -85 500 35
680 93 140 231 230 389 252 68 10 248 4 311 -10z m-1973 -102 c24 -57 111
-257 192 -445 82 -189 152 -343 157 -343 5 0 11 8 15 18 3 9 91 208 194 442
l188 425 105 3 106 3 0 -591 0 -590 -90 0 -90 0 0 422 c0 232 -3 418 -7 414
-5 -4 -89 -193 -188 -419 l-180 -412 -55 -3 -55 -2 -184 420 c-101 231 -187
417 -192 414 -5 -3 -9 -192 -9 -420 l0 -414 -85 0 -85 0 0 590 0 590 109 0
109 0 45 -102z"/>
</g>
</svg>
